<svg width="7" height="16" viewBox="0 0 7 16" fill="none" xmlns="http://www.w3.org/2000/svg">
<path d="M0.702858 14.8762L0.702886 14.8762C0.880239 15.0487 1.10745 15.1472 1.34632 15.1482C1.50583 15.1585 1.66435 15.1248 1.80882 15.0513C1.95467 14.977 2.08112 14.8647 2.17935 14.7256C2.17938 14.7256 2.17941 14.7256 2.17943 14.7255L6.42897 8.7391L6.42952 8.7383C6.57328 8.53299 6.65 8.2786 6.65 8.01867C6.65 7.759 6.57343 7.50486 6.42994 7.29965C6.4298 7.29945 6.42966 7.29924 6.42952 7.29904L2.3264 1.31541C2.24574 1.19001 2.14284 1.08361 2.023 1.00411C1.90239 0.924097 1.76749 0.873279 1.62675 0.856304C1.48594 0.839321 1.34397 0.856788 1.21023 0.907014C1.07765 0.956802 0.957003 1.0373 0.855075 1.1419C0.754234 1.23763 0.671606 1.35441 0.610876 1.4849C0.549652 1.61647 0.51156 1.76006 0.498201 1.90747C0.484842 2.0549 0.4964 2.20409 0.532396 2.34672C0.568362 2.48922 0.628228 2.62317 0.709421 2.74062C0.709486 2.74071 0.709551 2.74081 0.709616 2.7409L4.32179 8.01204L0.574791 13.2748L0.574666 13.275C0.492198 13.3912 0.430867 13.5241 0.393308 13.666C0.355747 13.8078 0.342478 13.9566 0.35405 14.1039C0.365622 14.2513 0.401876 14.3952 0.461295 14.5274C0.520715 14.6597 0.602459 14.7785 0.702858 14.8762Z" fill="#2B2C34" stroke="#2B2C34" stroke-width="0.3"/>
</svg>
