<svg width="213" height="44" viewBox="0 0 213 44" fill="none" xmlns="http://www.w3.org/2000/svg">
<rect width="213" height="44" rx="4" fill="#6246EA"/>
<path d="M37.2161 16.415L37.0841 15.749C36.9651 15.151 36.6961 14.586 36.0831 14.37C35.8861 14.301 35.6631 14.272 35.5131 14.129C35.3611 13.986 35.3171 13.763 35.2821 13.557C35.2171 13.179 35.1571 12.801 35.0901 12.424C35.0331 12.099 34.9881 11.734 34.8401 11.437C34.6451 11.037 34.2431 10.803 33.8441 10.649C33.6393 10.5724 33.4303 10.5076 33.2181 10.455C32.2181 10.192 31.1681 10.095 30.1411 10.039C28.9078 9.97115 27.6713 9.99187 26.4411 10.101C25.5261 10.184 24.5611 10.285 23.6911 10.601C23.3731 10.717 23.0451 10.857 22.8031 11.102C22.5061 11.404 22.4101 11.872 22.6261 12.248C22.7801 12.515 23.0411 12.704 23.3181 12.828C23.6781 12.99 24.0551 13.112 24.4411 13.194C25.5161 13.432 26.6301 13.525 27.7281 13.564C28.9461 13.614 30.1651 13.574 31.3781 13.446C31.6771 13.413 31.9761 13.373 32.2741 13.327C32.6261 13.273 32.8521 12.814 32.7481 12.493C32.6241 12.11 32.2911 11.962 31.9141 12.02C31.4481 12.094 30.9541 12.128 30.5321 12.166C29.3551 12.246 28.1741 12.248 26.9961 12.172C26.6095 12.1464 26.2237 12.1107 25.8391 12.065C25.7531 12.055 25.6591 12.04 25.5811 12.029C25.3381 11.993 25.0971 11.949 24.8571 11.899C24.7461 11.872 24.7461 11.714 24.8571 11.687H24.8621C25.1391 11.627 25.4191 11.579 25.7001 11.54H25.7021C25.8331 11.531 25.9651 11.508 26.0961 11.492C27.234 11.3739 28.3787 11.3338 29.5221 11.372C30.1961 11.391 30.8691 11.439 31.5391 11.516L31.7671 11.547C32.0341 11.587 32.3001 11.635 32.5651 11.692C32.9571 11.777 33.4601 11.805 33.6351 12.234C33.6901 12.371 33.7151 12.522 33.7461 12.665L34.0651 14.149C34.0718 14.1808 34.072 14.2137 34.0655 14.2455C34.059 14.2774 34.046 14.3076 34.0273 14.3342C34.0087 14.3609 33.9847 14.3834 33.957 14.4004C33.9292 14.4174 33.8983 14.4285 33.8661 14.433H33.8631C33.8261 14.439 33.7881 14.443 33.7511 14.448C32.1781 14.6486 30.5938 14.7472 29.0081 14.743C27.4369 14.7413 25.8674 14.6398 24.3091 14.439C24.1691 14.422 24.0161 14.397 23.8921 14.379C23.5661 14.331 23.2431 14.271 22.9191 14.218C22.5261 14.153 22.1511 14.186 21.7961 14.379C21.5061 14.539 21.2691 14.783 21.1211 15.08C20.9671 15.396 20.9221 15.74 20.8541 16.08C20.7851 16.42 20.6781 16.787 20.7191 17.136C20.8061 17.889 21.3321 18.501 22.0891 18.638C25.8325 19.306 29.6526 19.4326 33.4321 19.014C33.5039 19.0058 33.5766 19.0138 33.6449 19.0375C33.7131 19.0612 33.7752 19.0999 33.8266 19.1507C33.8779 19.2016 33.9172 19.2633 33.9415 19.3314C33.9658 19.3994 33.9745 19.4721 33.9671 19.544L33.8961 20.241L32.8781 30.148C32.8371 30.558 32.8311 30.98 32.7531 31.385C32.6311 32.022 32.2001 32.413 31.5711 32.556C30.9941 32.687 30.4061 32.756 29.8151 32.761C29.1591 32.765 28.5051 32.736 27.8491 32.739C27.1501 32.743 26.2931 32.679 25.7541 32.159C25.2791 31.701 25.2141 30.985 25.1491 30.366L24.4181 23.353L24.0961 20.259C24.0591 19.908 23.8101 19.564 23.4181 19.581C23.0821 19.596 22.7001 19.881 22.7401 20.26L22.9681 22.445L23.9171 31.557C24.0641 32.901 25.0911 33.625 26.3631 33.829C27.1051 33.949 27.8661 33.973 28.6201 33.985C29.5861 34.001 30.5621 34.038 31.5121 33.863C32.9201 33.605 33.9771 32.665 34.1281 31.206C34.4681 27.874 34.8111 24.543 35.1521 21.211L35.3671 19.124C35.3776 19.0205 35.4213 18.9231 35.4915 18.8464C35.5618 18.7697 35.6549 18.7176 35.7571 18.698C36.1591 18.62 36.5441 18.486 36.8311 18.18C37.2861 17.692 37.3771 17.057 37.2161 16.415ZM35.7381 17.187C35.5931 17.324 35.3751 17.388 35.1601 17.42C32.7441 17.779 30.2941 17.96 27.8521 17.88C26.1041 17.82 24.3751 17.626 22.6451 17.382C22.4751 17.358 22.2921 17.327 22.1751 17.202C21.9551 16.966 22.0641 16.492 22.1211 16.207C22.1731 15.947 22.2731 15.598 22.5841 15.561C23.0681 15.504 23.6301 15.709 24.1101 15.781C24.6871 15.869 25.2661 15.94 25.8471 15.993C28.3271 16.219 30.8491 16.183 33.3191 15.853C33.7691 15.793 34.2181 15.723 34.6641 15.643C35.0631 15.571 35.5041 15.437 35.7441 15.849C35.9101 16.13 35.9321 16.506 35.9061 16.823C35.8982 16.9614 35.8377 17.0916 35.7371 17.187H35.7381Z" fill="#FFFFFE"/>
<path d="M26.4701 21.8751C27.7391 21.8751 28.7171 21.4571 29.5791 21.0871C30.3481 20.7581 31.0131 20.4741 31.8391 20.4741C32.2901 20.4783 32.737 20.5588 33.1611 20.7121L32.2211 30.6621C32.1561 31.4421 31.5051 32.0421 30.7221 32.0421C30.7221 32.0421 29.3831 32.1071 28.9361 32.1071C28.5211 32.1071 27.2781 32.0421 27.2781 32.0421C26.4951 32.0421 25.8431 31.4421 25.7781 30.6621L24.9011 21.6581C25.412 21.8008 25.9397 21.8738 26.4701 21.8751Z" fill="#FFDD00"/>
<path d="M52.296 29H57.948C59.448 29 60.618 28.64 61.458 27.92C62.31 27.188 62.736 26.18 62.736 24.896C62.736 24.284 62.616 23.708 62.376 23.168C62.136 22.628 61.716 22.166 61.116 21.782C61.488 21.446 61.758 21.074 61.926 20.666C62.106 20.258 62.196 19.826 62.196 19.37C62.196 18.194 61.818 17.27 61.062 16.598C60.306 15.926 59.268 15.59 57.948 15.59H52.296V29ZM54.744 20.792V17.678H58.074C58.578 17.678 58.98 17.816 59.28 18.092C59.58 18.368 59.73 18.74 59.73 19.208C59.73 19.676 59.58 20.06 59.28 20.36C58.98 20.648 58.578 20.792 58.074 20.792H54.744ZM54.744 26.84V22.934H58.2C58.836 22.934 59.34 23.114 59.712 23.474C60.096 23.822 60.288 24.296 60.288 24.896C60.288 25.484 60.096 25.958 59.712 26.318C59.34 26.666 58.836 26.84 58.2 26.84H54.744ZM68.0353 29.216C68.6473 29.216 69.1873 29.102 69.6553 28.874C70.1353 28.634 70.5133 28.286 70.7893 27.83V29H73.0213V19.208H70.6633V24.95C70.6633 25.598 70.4773 26.114 70.1053 26.498C69.7333 26.87 69.2593 27.056 68.6833 27.056C68.0953 27.056 67.6153 26.87 67.2433 26.498C66.8833 26.126 66.7033 25.628 66.7033 25.004V19.208H64.3453V25.202C64.3453 26.402 64.6693 27.374 65.3173 28.118C65.9773 28.85 66.8833 29.216 68.0353 29.216ZM76.4012 32.978C77.3252 32.978 78.0932 32.714 78.7052 32.186C79.3292 31.67 79.8272 30.938 80.1992 29.99L84.4652 19.208H81.9092L79.3892 25.958L76.8512 19.208H74.3132L78.1832 29L77.9672 29.522C77.7752 29.93 77.5532 30.26 77.3012 30.512C77.0612 30.764 76.6712 30.89 76.1312 30.89C75.9392 30.89 75.7352 30.872 75.5192 30.836C75.3032 30.812 75.1112 30.776 74.9432 30.728V32.708C75.1472 32.804 75.3752 32.87 75.6272 32.906C75.8792 32.954 76.1372 32.978 76.4012 32.978ZM89.1573 29H91.6053V19.712L95.7633 25.4H96.0513L100.191 19.892V29H102.657V15.59H100.317L95.9613 21.638L91.4973 15.59H89.1573V29ZM109.67 29.216C110.666 29.216 111.536 28.994 112.28 28.55C113.036 28.094 113.564 27.518 113.864 26.822L111.956 25.886C111.74 26.258 111.44 26.564 111.056 26.804C110.684 27.032 110.228 27.146 109.688 27.146C108.98 27.146 108.386 26.93 107.906 26.498C107.426 26.066 107.15 25.49 107.078 24.77H114.134C114.182 24.638 114.212 24.488 114.224 24.32C114.248 24.14 114.26 23.96 114.26 23.78C114.26 22.904 114.074 22.106 113.702 21.386C113.33 20.666 112.79 20.09 112.082 19.658C111.374 19.214 110.51 18.992 109.49 18.992C108.578 18.992 107.75 19.214 107.006 19.658C106.274 20.102 105.692 20.708 105.26 21.476C104.84 22.232 104.63 23.102 104.63 24.086C104.63 25.034 104.84 25.898 105.26 26.678C105.68 27.458 106.268 28.076 107.024 28.532C107.78 28.988 108.662 29.216 109.67 29.216ZM109.49 20.936C110.114 20.936 110.63 21.128 111.038 21.512C111.458 21.884 111.692 22.37 111.74 22.97H107.132C107.264 22.322 107.54 21.824 107.96 21.476C108.392 21.116 108.902 20.936 109.49 20.936ZM118.346 29H120.992L121.964 26.12H127.148L128.102 29H130.766L126.14 15.59H122.972L118.346 29ZM122.666 23.96L124.556 18.308L126.446 23.96H122.666ZM141.758 29.216C142.718 29.216 143.576 29.054 144.332 28.73C145.1 28.406 145.748 27.98 146.276 27.452C146.804 26.912 147.182 26.324 147.41 25.688L145.214 24.662C144.95 25.334 144.518 25.892 143.918 26.336C143.33 26.768 142.61 26.984 141.758 26.984C140.918 26.984 140.18 26.786 139.544 26.39C138.908 25.994 138.41 25.448 138.05 24.752C137.69 24.044 137.51 23.222 137.51 22.286C137.51 21.35 137.69 20.534 138.05 19.838C138.41 19.13 138.908 18.584 139.544 18.2C140.18 17.804 140.918 17.606 141.758 17.606C142.61 17.606 143.33 17.828 143.918 18.272C144.518 18.704 144.95 19.256 145.214 19.928L147.41 18.902C147.182 18.266 146.804 17.684 146.276 17.156C145.748 16.616 145.1 16.184 144.332 15.86C143.576 15.536 142.718 15.374 141.758 15.374C140.798 15.374 139.91 15.548 139.094 15.896C138.278 16.232 137.57 16.712 136.97 17.336C136.37 17.948 135.902 18.68 135.566 19.532C135.23 20.372 135.062 21.29 135.062 22.286C135.062 23.282 135.23 24.206 135.566 25.058C135.902 25.898 136.37 26.63 136.97 27.254C137.57 27.878 138.278 28.364 139.094 28.712C139.91 29.048 140.798 29.216 141.758 29.216ZM153.812 29.216C154.76 29.216 155.624 29 156.404 28.568C157.184 28.124 157.808 27.518 158.276 26.75C158.744 25.97 158.978 25.088 158.978 24.104C158.978 23.12 158.744 22.244 158.276 21.476C157.82 20.708 157.202 20.102 156.422 19.658C155.642 19.214 154.772 18.992 153.812 18.992C152.84 18.992 151.964 19.214 151.184 19.658C150.404 20.102 149.78 20.708 149.312 21.476C148.856 22.244 148.628 23.12 148.628 24.104C148.628 25.088 148.856 25.964 149.312 26.732C149.78 27.5 150.404 28.106 151.184 28.55C151.976 28.994 152.852 29.216 153.812 29.216ZM153.812 27.056C153.284 27.056 152.81 26.93 152.39 26.678C151.982 26.426 151.658 26.078 151.418 25.634C151.19 25.178 151.076 24.668 151.076 24.104C151.076 23.54 151.19 23.036 151.418 22.592C151.658 22.148 151.982 21.8 152.39 21.548C152.81 21.284 153.284 21.152 153.812 21.152C154.34 21.152 154.802 21.284 155.198 21.548C155.606 21.8 155.924 22.148 156.152 22.592C156.392 23.036 156.512 23.54 156.512 24.104C156.512 24.668 156.392 25.178 156.152 25.634C155.924 26.078 155.606 26.426 155.198 26.678C154.802 26.93 154.34 27.056 153.812 27.056ZM161.671 29H164.029V21.314H168.799V29H171.157V21.314H173.335V19.208H171.157V18.884C171.157 18.392 171.301 18.032 171.589 17.804C171.889 17.564 172.297 17.444 172.813 17.444C173.005 17.444 173.209 17.462 173.425 17.498V15.464C173.149 15.404 172.843 15.374 172.507 15.374C171.379 15.374 170.479 15.68 169.807 16.292C169.135 16.904 168.799 17.768 168.799 18.884V19.208H164.029V18.884C164.029 18.392 164.173 18.032 164.461 17.804C164.761 17.564 165.169 17.444 165.685 17.444C165.877 17.444 166.081 17.462 166.297 17.498V15.464C166.021 15.404 165.715 15.374 165.379 15.374C164.251 15.374 163.351 15.68 162.679 16.292C162.007 16.904 161.671 17.768 161.671 18.884V19.208H159.943V21.314H161.671V29ZM179.349 29.216C180.345 29.216 181.215 28.994 181.959 28.55C182.715 28.094 183.243 27.518 183.543 26.822L181.635 25.886C181.419 26.258 181.119 26.564 180.735 26.804C180.363 27.032 179.907 27.146 179.367 27.146C178.659 27.146 178.065 26.93 177.585 26.498C177.105 26.066 176.829 25.49 176.757 24.77H183.813C183.861 24.638 183.891 24.488 183.903 24.32C183.927 24.14 183.939 23.96 183.939 23.78C183.939 22.904 183.753 22.106 183.381 21.386C183.009 20.666 182.469 20.09 181.761 19.658C181.053 19.214 180.189 18.992 179.169 18.992C178.257 18.992 177.429 19.214 176.685 19.658C175.953 20.102 175.371 20.708 174.939 21.476C174.519 22.232 174.309 23.102 174.309 24.086C174.309 25.034 174.519 25.898 174.939 26.678C175.359 27.458 175.947 28.076 176.703 28.532C177.459 28.988 178.341 29.216 179.349 29.216ZM179.169 20.936C179.793 20.936 180.309 21.128 180.717 21.512C181.137 21.884 181.371 22.37 181.419 22.97H176.811C176.943 22.322 177.219 21.824 177.639 21.476C178.071 21.116 178.581 20.936 179.169 20.936ZM190.371 29.216C191.367 29.216 192.237 28.994 192.981 28.55C193.737 28.094 194.265 27.518 194.565 26.822L192.657 25.886C192.441 26.258 192.141 26.564 191.757 26.804C191.385 27.032 190.929 27.146 190.389 27.146C189.681 27.146 189.087 26.93 188.607 26.498C188.127 26.066 187.851 25.49 187.779 24.77H194.835C194.883 24.638 194.913 24.488 194.925 24.32C194.949 24.14 194.961 23.96 194.961 23.78C194.961 22.904 194.775 22.106 194.403 21.386C194.031 20.666 193.491 20.09 192.783 19.658C192.075 19.214 191.211 18.992 190.191 18.992C189.279 18.992 188.451 19.214 187.707 19.658C186.975 20.102 186.393 20.708 185.961 21.476C185.541 22.232 185.331 23.102 185.331 24.086C185.331 25.034 185.541 25.898 185.961 26.678C186.381 27.458 186.969 28.076 187.725 28.532C188.481 28.988 189.363 29.216 190.371 29.216ZM190.191 20.936C190.815 20.936 191.331 21.128 191.739 21.512C192.159 21.884 192.393 22.37 192.441 22.97H187.833C187.965 22.322 188.241 21.824 188.661 21.476C189.093 21.116 189.603 20.936 190.191 20.936Z" fill="#FFFFFE"/>
</svg>
